<?xml version="1.0" standalone="no"?>
<!DOCTYPE svg PUBLIC "-//W3C//DTD SVG 1.1//EN" "http://www.w3.org/Graphics/SVG/1.1/DTD/svg11.dtd" >
<svg xmlns="http://www.w3.org/2000/svg">
<metadata>
Created by FontForge 20120731 at Tue May 13 14:52:18 2014
 By Gijs Nijholt,,,
Created by Gijs Nijholt,,, with FontForge 2.0 (http://fontforge.sf.net)
</metadata>
<defs>
<font id="Lizard" horiz-adv-x="187" >
  <font-face 
    font-family="Lizard"
    font-weight="500"
    font-stretch="normal"
    units-per-em="512"
    panose-1="2 0 6 3 0 0 0 0 0 0"
    ascent="448"
    descent="-64"
    bbox="0 -567 666 448"
    underline-thickness="25"
    underline-position="-52"
    unicode-range="U+E001-E014"
  />
<missing-glyph 
d="M17 0v341h136v-341h-136zM34 17h102v307h-102v-307z" />
    <glyph glyph-name=".notdef" 
d="M17 0v341h136v-341h-136zM34 17h102v307h-102v-307z" />
    <glyph glyph-name=".null" horiz-adv-x="0" 
 />
    <glyph glyph-name="nonmarkingreturn" horiz-adv-x="170" 
 />
    <glyph glyph-name="uniE001" unicode="&#xe001;" horiz-adv-x="282" 
d="M0 448h64v-96h152v95h66v-503h-67v105h-150v-108h-65v507zM0 448z" />
    <glyph glyph-name="uniE002" unicode="&#xe002;" horiz-adv-x="283" 
d="M0 448h68v-106h148v106h67v-509h-65v106h-150v-104h-68v507zM68 285l-1 -185h149v185h-148zM68 285z" />
    <glyph glyph-name="uniE003" unicode="&#xe003;" horiz-adv-x="441" 
d="M18 448l167 -95v-302l-165 -98l-20 32l144 85v259l-144 82zM18 448zM423 -47l-167 95v302l165 98l20 -32l-144 -84v-260l144 -82zM423 -47z" />
    <glyph glyph-name="uniE004" unicode="&#xe004;" horiz-adv-x="479" 
d="M66 442l102 -104l-103 -103l-20 21l80 82l-81 81zM66 442zM457 442l22 -23l-81 -81l80 -82l-20 -21l-103 103zM457 442zM188 373h62v-71h-62v71zM188 373zM273 373h62v-71h-62v71zM273 373zM3 443h27v-214h-30zM3 443z" />
    <glyph glyph-name="uniE005" unicode="&#xe005;" horiz-adv-x="494" 
d="M25 441l116 -118l-117 -117l-23 24l91 93l-92 92zM25 441zM469 441l25 -26l-92 -92l91 -93l-23 -24l-117 117zM469 441zM163 363h71v-80h-71v80zM163 363zM260 363h71v-80h-71v80zM260 363z" />
    <glyph glyph-name="uniE006" unicode="&#xe006;" horiz-adv-x="389" 
d="M195 -3q-80 0 -137.5 57.5t-57.5 137.5t57.5 137.5t137.5 57.5t137 -57.5t57 -137.5t-57 -137.5t-137 -57.5zM195 -3zM195 38q-64 0 -109 45t-45 109t45 109t109 45t108.5 -45t44.5 -109t-44.5 -109t-108.5 -45zM195 38zM195 100q-38 0 -65.5 27t-27.5 65t27.5 65
t65.5 27t65 -27t27 -65t-27 -65t-65 -27zM195 100z" />
    <glyph glyph-name="uniE007" unicode="&#xe007;" horiz-adv-x="394" 
d="M0 434h111v-481h-108zM0 434zM183 412l211 -220l-211 -212l-46 43l165 172l-173 176zM183 412z" />
    <glyph glyph-name="uniE008" unicode="&#xe008;" horiz-adv-x="243" 
d="M243 405h-239l-4 -235h79q0 -10 -1.5 -50t-1.5 -50h-45l92 -113l93 112h-51v101h78v235zM122 212h-79l3 151h154v-151h-77h-1zM122 27l1 -1h-1v1zM25 384zM25 384z" />
    <glyph glyph-name="uniE009" unicode="&#xe009;" horiz-adv-x="253" 
d="M5 448h248v-244h-99v-181h34l-60 -72l-60 73h32v180h-100zM5 448z" />
    <glyph glyph-name="uniE00A" unicode="&#xe00a;" horiz-adv-x="351" 
d="M8 216l-8 -10l202 -152l51 -118l11 5l-51 121zM205 60h13v363h-13v-363zM203 64l9 -9l139 130l-9 9zM211 417q-14 0 -14 14t14 14t14 -14t-14 -14zM211 417z" />
    <glyph glyph-name="uniE00B" unicode="&#xe00b;" horiz-adv-x="493" 
d="M0 81v225h143v142h210v-142h140v-225h-493zM0 81z" />
    <glyph glyph-name="uniE00C" unicode="&#xe00c;" horiz-adv-x="333" 
d="M185 432l49 -12l-57 -108l109 -66l-95 -58l45 -38l-120 -18l19 113l27 -40l40 42l-71 47zM185 432zM1 113h332v-162h-333zM1 113z" />
    <glyph glyph-name="uniE00D" unicode="&#xe00d;" horiz-adv-x="304" 
d="M23 -53l113 297l-99 -100l-34 32l116 118l-119 124l30 28l125 -119l116 117l29 -30l-114 -118l118 -120l-33 -35l-97 99l113 -293h-264zM23 -53z" />
    <glyph glyph-name="uniE00E" unicode="&#xe00e;" horiz-adv-x="505" 
d="M0 448h505v-232h-505v232zM0 448z" />
    <glyph glyph-name="uniE00F" unicode="&#xe00f;" horiz-adv-x="512" 
d="M256 -64q-106 0 -181 75t-75 181t75 181t181 75t181 -75t75 -181t-75 -181t-181 -75zM256 -64zM253 9q-77 0 -132 54.5t-55 131.5t55 132t132 55t131.5 -55t54.5 -132t-54.5 -131.5t-131.5 -54.5zM253 2q79 0 136 57t57 136t-57 136t-136 57t-136 -57t-57 -136t57 -136
t136 -57zM253 6zM253 6zM253 6q79 0 134 55t55 134t-55 134.5t-134 55.5t-134.5 -55.5t-55.5 -134.5t55.5 -134t134.5 -55zM253 6zM253 151q-18 0 -31 13t-13 31t13 31t31 13t31 -13t13 -31t-13 -31t-31 -13zM253 151zM219 172l59 60l144 -146l-48 -53zM219 172z" />
    <glyph glyph-name="uniE010" unicode="&#xe010;" horiz-adv-x="504" 
d="M7 409l-7 -12v-68h37v45h29v-45h24v44h31v-44h18v45h31v-45h82v117h-18q-5 0 -9 -3.5t-4 -8.5v-73l-65 54h-136q-9 -2 -13 -6zM7 248l13 -6h136l65 55v-74q0 -5 4 -8.5t9 -3.5h18v118h-82v-46h-31v46h-18v-45h-31v45h-24v-46h-29v46h-37v-69q1 -7 7 -12zM7 248zM497 409
l-13 6h-137l-64 -54v73q0 5 -4 8.5t-9 3.5h-18v-117h81v45h32v-45h18v44h30v-44h25v45h29v-45h37v68q-1 7 -7 12zM497 248l7 12v69h-37v-46h-29v46h-25v-45h-30v45h-18v-46h-32v46h-81v-118h18q5 0 9 3.5t4 8.5v74l64 -55h137q9 2 13 6zM497 248z" />
    <glyph glyph-name="uniE011" unicode="&#xe011;" horiz-adv-x="513" 
d="M0 71l2 -31l511 2v34l-255 372zM152 210l108 165l123 -175l-26 -4l-55 63l-22 -58l-47 77l-54 -72zM152 210z" />
    <glyph glyph-name="uniE012" unicode="&#xe012;" horiz-adv-x="666" 
d="M475 -14l62 69l-115 78l170 269l74 -15l-167 -237l167 -107l-155 -95l81 -61l-191 -27l29 183zM37 -567l-37 67l270 165v516l-270 165l37 67l306 -189v-602l-306 -189v0z" />
    <glyph glyph-name="uniE013" unicode="&#xe013;" horiz-adv-x="410" 
d="M178 418h47v-967h-47v967zM44 -549l-44 66l323 162v510l-323 163l44 66l366 -186v-595zM44 418h48v-967h-48v967v0z" />
    <glyph glyph-name="uniE014" unicode="&#xe014;" horiz-adv-x="185" 
d="M18 448l167 -95v-302l-165 -98l-20 32l144 85v259l-144 82zM18 448z" />
  </font>
</defs>
</svg>
