<?xml version="1.0" encoding="UTF-8" standalone="no"?>
<svg width="63px" height="30px" viewBox="0 0 63 30" version="1.1" xmlns="http://www.w3.org/2000/svg" xmlns:xlink="http://www.w3.org/1999/xlink" xmlns:sketch="http://www.bohemiancoding.com/sketch/ns">
    <title>icon-satellite</title>
    <description>Created with Sketch (http://www.bohemiancoding.com/sketch)</description>
    <defs></defs>
    <g id="Page 1" stroke="none" stroke-width="1" fill="none" fill-rule="evenodd">
        <g id="icon-satellite" fill="#FFFFFF">
            <path d="M1.79785158,4.76928719 C2.30639714,4.30307775 3.36834402,4.09869106 3.36834402,4.09869106 L20.1774901,4.09869111 L28.0767769,10.7653722 L28.0767769,1.73339844 C28.0767769,0.968827545 28.915604,0.206467266 29.754431,0.208677879 L31.9287602,0.214408023 L31.9287604,14.7004124 L21.8906402,14.7004124 L21.8906402,9.09116805 L18.0576171,9.09116805 L18.0576171,14.7004124 L15.8323565,14.700412 L15.8323565,9.22510138 L12.0698995,9.22510138 L12.0698995,14.7004124 L9.00933351,14.7004124 L9.00933339,9.09116779 L5.43151743,9.09116779 L5.4315175,14.7004124 L0.937255758,14.7004124 L0.937255758,6.3273927 C0.937255758,6.3273927 1.090853,5.41742856 1.79785158,4.76928719 Z M1.79785158,24.6315376 C2.30639714,25.097747 3.36834402,25.3021337 3.36834402,25.3021337 L20.1774901,25.3021337 L28.0767769,18.6354526 L28.0767769,27.6674263 C28.0767769,28.4319972 28.915604,29.1943575 29.754431,29.1921469 L31.9287602,29.1864168 L31.9287604,14.7004124 L21.8906402,14.7004124 L21.8906402,20.3096567 L18.0576171,20.3096567 L18.0576171,14.7004124 L15.8323565,14.7004127 L15.8323565,20.1757234 L12.0698995,20.1757234 L12.0698995,14.7004124 L9.00933351,14.7004124 L9.00933339,20.309657 L5.43151743,20.309657 L5.4315175,14.7004124 L0.937255758,14.7004124 L0.937255758,23.0734321 C0.937255758,23.0734321 1.090853,23.9833962 1.79785158,24.6315376 Z M1.79785158,24.6315376" id="Path 1"></path>
            <path d="M32.7893562,4.76928719 C33.2979018,4.30307775 34.3598487,4.09869106 34.3598487,4.09869106 L51.1689948,4.09869111 L59.0682816,10.7653722 L59.0682816,1.73339844 C59.0682815,0.968827545 59.9071086,0.206467266 60.7459357,0.208677879 L62.9202648,0.214408023 L62.9202651,14.7004124 L52.8821448,14.7004124 L52.8821448,9.09116805 L49.0491218,9.09116805 L49.0491218,14.7004124 L46.8238611,14.700412 L46.8238611,9.22510138 L43.0614041,9.22510138 L43.0614041,14.7004124 L40.0008382,14.7004124 L40.0008381,9.09116779 L36.4230221,9.09116779 L36.4230222,14.7004124 L31.9287604,14.7004124 L31.9287604,6.3273927 C31.9287604,6.3273927 32.0823577,5.41742856 32.7893562,4.76928719 Z M32.7893562,24.6315376 C33.2979018,25.097747 34.3598487,25.3021337 34.3598487,25.3021337 L51.1689948,25.3021337 L59.0682816,18.6354526 L59.0682816,27.6674263 C59.0682815,28.4319972 59.9071086,29.1943575 60.7459357,29.1921469 L62.9202648,29.1864168 L62.9202651,14.7004124 L52.8821448,14.7004124 L52.8821448,20.3096567 L49.0491218,20.3096567 L49.0491218,14.7004124 L46.8238611,14.7004127 L46.8238611,20.1757234 L43.0614041,20.1757234 L43.0614041,14.7004124 L40.0008382,14.7004124 L40.0008381,20.309657 L36.4230221,20.309657 L36.4230222,14.7004124 L31.9287604,14.7004124 L31.9287604,23.0734321 C31.9287604,23.0734321 32.0823577,23.9833962 32.7893562,24.6315376 Z M32.7893562,24.6315376" id="Path 1" transform="translate(47.424513, 14.700412) scale(-1, 1) translate(-47.424513, -14.700412) "></path>
        </g>
    </g>
</svg>