<?xml version="1.0" standalone="no"?>
<!DOCTYPE svg PUBLIC "-//W3C//DTD SVG 1.1//EN" "http://www.w3.org/Graphics/SVG/1.1/DTD/svg11.dtd" >
<!--
2016-3-14: Created with FontForge (http://fontforge.org)
-->
<svg xmlns="http://www.w3.org/2000/svg" xmlns:xlink="http://www.w3.org/1999/xlink" version="1.1">
<metadata>
Created by FontForge 20150824 at Thu Sep 29 09:25:36 2016
 By dirk,,,
Copyright (c) 2016, Nelen &#38; Schuurmans.
</metadata>
<defs>
<font id="LizardIcons" horiz-adv-x="1024" >
  <font-face 
    font-family="Lizard Icons"
    font-weight="400"
    font-stretch="normal"
    units-per-em="1024"
    panose-1="2 0 5 3 0 0 0 0 0 0"
    ascent="819"
    descent="-205"
    x-height="277"
    cap-height="639"
    bbox="-53 -212.875 1861 869.845"
    underline-thickness="51.2"
    underline-position="-102.4"
    unicode-range="U+0028-F1C0"
  />
    <missing-glyph />
    <glyph glyph-name="a" unicode="a" horiz-adv-x="893" 
d="M32.1602 809.282l338.58 -194.04v-611.819l-334.62 -198l-39.6006 65.3398l291.061 172.26v524.7l-291.061 166.32zM32.1602 809.282zM853.86 -194.577l-338.58 192.06v611.82l334.62 199.979l41.5801 -65.3398l-293.04 -170.279v-526.681l293.04 -166.319z
M853.86 -194.577z" />
    <glyph glyph-name="b" unicode="b" horiz-adv-x="571" 
d="M-1.61035 820.601h130.681v-196.021h306.899v194.04h134.641v-1019.7h-136.62v211.86h-302.94v-217.8h-132.66v1027.62zM-1.61035 820.601z" />
    <glyph glyph-name="c" unicode="c" horiz-adv-x="573" 
d="M0.0751953 820.366h137.55v-214.186h296.715v214.186h135.585v-1023.77h-131.655v212.221h-300.645v-208.29h-137.55v1019.83zM137.625 492.211l-1.96484 -373.351h298.68v373.351h-296.715zM137.625 492.211z" />
    <glyph glyph-name="d" unicode="d" horiz-adv-x="1199" 
d="M55.6484 569.119l280.367 -287.494l-282.744 -282.744l-57.0234 57.0234l220.968 225.721l-223.345 225.719zM55.6484 569.119zM1134.35 569.119l61.7773 -61.7754l-223.345 -225.719l220.968 -225.721l-57.0234 -57.0234l-285.119 282.744zM1134.35 569.119z
M390.665 379.04h173.446v-194.831h-173.446v194.831zM390.665 379.04zM625.889 379.04h173.447v-194.831h-173.447v194.831zM625.889 379.04z" />
    <glyph glyph-name="e" unicode="e" horiz-adv-x="1158" 
d="M161.448 521.296l247.104 -251.855l-249.48 -251.856l-49.8955 52.2715l194.833 199.585l-197.209 197.208zM161.448 521.296zM1111.85 521.296l52.2715 -54.6475l-194.831 -197.208l192.456 -199.585l-47.5195 -52.2715l-249.48 251.856zM1111.85 521.296z
M458.448 352.6h149.688v-171.071h-149.688v171.071zM458.448 352.6zM665.16 352.6h149.688v-171.071h-149.688v171.071zM665.16 352.6zM7.00879 523.672h66.5264v-520.344h-73.6543zM7.00879 523.672z" />
    <glyph glyph-name="f" unicode="f" horiz-adv-x="1017" 
d="M507.556 -201.855c-140.58 0 -260.711 51.1201 -360.396 150.803c-99.6846 99.6846 -150.805 219.817 -150.805 360.397c0 140.58 51.1201 258.156 150.805 357.84c99.6846 99.6826 219.815 150.803 360.396 150.803c140.58 0 258.156 -51.1201 357.84 -150.803
c99.6846 -99.6836 148.249 -217.26 148.249 -357.84c0 -140.58 -48.5645 -260.713 -148.249 -360.397c-99.6836 -99.6826 -217.26 -150.803 -357.84 -150.803zM507.556 -201.855zM507.556 -94.5039c112.464 0 207.036 38.3398 283.716 117.576
c76.6797 79.2354 115.02 173.809 115.02 286.272c0 112.463 -38.3398 204.48 -115.02 283.716s-171.252 117.575 -283.716 117.575c-112.464 0 -207.036 -38.3398 -286.271 -117.575c-79.2354 -79.2354 -117.575 -171.253 -117.575 -283.716
c0 -112.464 38.3398 -207.037 117.575 -286.272c79.2354 -79.2363 173.808 -117.576 286.271 -117.576zM507.556 -94.5039zM507.556 66.5244c-66.4561 0 -122.688 25.5605 -171.251 71.5674c-48.5645 46.0088 -74.125 104.796 -74.125 171.253
c0 66.4561 25.5605 122.688 74.125 168.695c48.5635 46.0078 104.795 71.5674 171.251 71.5674c66.4561 0 122.688 -25.5596 168.695 -71.5674c46.0088 -46.0078 71.5693 -102.239 71.5693 -168.695c0 -66.457 -25.5605 -125.244 -71.5693 -171.253
c-46.0068 -46.0068 -102.239 -71.5674 -168.695 -71.5674zM507.556 66.5244z" />
    <glyph glyph-name="g" unicode="g" horiz-adv-x="829" 
d="M-1.60547 816.562h235.98v-1018.44h-229.77zM-1.60547 816.562zM385.485 771.022l447.12 -465.75l-447.12 -449.189l-97.29 91.0801l349.83 364.32l-366.391 372.6zM385.485 771.022z" />
    <glyph glyph-name="h" unicode="h" horiz-adv-x="518" 
d="M9.93555 814.608h507.11v-499.125h-201.646v-369.352h69.8779l-123.784 -147.74l-121.785 149.737h63.8877v367.354h-203.643zM9.93555 814.608z" />
    <glyph glyph-name="i" unicode="i" horiz-adv-x="560" 
d="M558.625 819.875h-551.25l-9 -542.25h182.25c0 -15.75 -2.25 -54 -4.5 -114.75s-2.25 -99 -2.25 -114.75h-103.5l211.5 -261l213.75 258.75h-117v231.75h180v542.25zM279.625 374.375h-182.25l6.75 348.75h355.5v-348.75h-177.75h-2.25zM279.625 -50.875l2.25 -2.25
h-2.25v2.25zM56.875 770.375zM56.875 770.375z" />
    <glyph glyph-name="j" unicode="j" horiz-adv-x="712" 
d="M13.9297 359.479l-15.8389 -19.7998l409.859 -308.88l102.959 -239.58l21.7812 11.8799l-102.961 243.541zM413.891 42.6797h25.7393v736.561h-25.7393v-736.561zM409.93 52.5801l17.8203 -19.7998l281.159 263.34l-17.8184 19.7998zM425.771 767.359
c-19.8008 0 -27.7207 7.9209 -27.7207 27.7207s7.91992 29.7002 27.7207 29.7002c19.7998 0 27.7197 -9.90039 27.7197 -29.7002s-7.91992 -27.7207 -27.7197 -27.7207zM425.771 767.359z" />
    <glyph glyph-name="k" unicode="k" horiz-adv-x="1046" 
d="M-1.73828 483.332h1048.48v-482.664h-1048.48v482.664zM-1.73828 483.332z" />
    <glyph glyph-name="l" unicode="l" horiz-adv-x="985" 
d="M1.125 0.400391v448.5h284.7v284.699h419.25v-284.699h280.8v-448.5h-984.75zM1.125 0.400391z" />
    <glyph glyph-name="m" unicode="m" horiz-adv-x="710" 
d="M390.795 815.22l105.569 -24.8398l-122.129 -229.77l231.84 -138.69l-200.79 -122.131l95.2197 -80.7285l-254.61 -39.3301l39.3301 240.119l57.9609 -84.8691l84.8701 89.0088l-151.111 99.3604zM390.795 815.22zM1.63574 140.4h703.8v-343.62h-705.871zM1.63574 140.4z
" />
    <glyph glyph-name="n" unicode="n" horiz-adv-x="608" 
d="M39.1299 -204.08l227.7 601.92l-199.98 -203.939l-69.2998 65.3398l235.62 239.58l-241.561 251.46l61.3809 57.4209l253.439 -241.561l235.62 237.6l57.4199 -61.3799l-231.66 -239.58l239.581 -243.54l-65.3408 -71.2803l-198 201.96l229.68 -594h-534.6z
M39.1299 -204.08z" />
    <glyph glyph-name="o" unicode="o" horiz-adv-x="1017" 
d="M508 -203.186c-140.4 0 -261.3 50.7002 -360.75 150.15c-99.4502 99.4502 -150.15 222.3 -150.15 362.7c0 140.399 50.7002 261.3 150.15 360.75c99.4502 99.4492 220.35 150.149 360.75 150.149s261.3 -50.7002 360.75 -150.149
c99.4502 -99.4502 150.15 -220.351 150.15 -360.75c0 -140.4 -50.7002 -263.25 -150.15 -362.7c-99.4502 -99.4502 -220.35 -150.15 -360.75 -150.15zM508 -203.186zM502.15 -56.9355c-103.351 0 -189.15 37.0498 -263.25 109.2
c-74.1006 72.1504 -109.2 159.9 -109.2 263.25c0 103.35 35.0996 189.15 109.2 263.25c74.0996 74.0996 159.899 109.2 263.25 109.2c103.35 0 191.1 -35.1006 263.25 -109.2c72.1494 -74.0996 109.199 -159.9 109.199 -263.25c0 -103.35 -37.0498 -191.1 -109.199 -263.25
c-72.1504 -72.1504 -159.9 -109.2 -263.25 -109.2zM502.15 -70.585c105.3 0 195 37.0498 271.05 113.1c76.0498 76.0498 115.05 167.7 115.05 273c0 105.3 -39 195 -115.05 271.05c-76.0498 76.0498 -165.75 113.101 -271.05 113.101
c-105.301 0 -195 -37.0508 -271.051 -113.101c-76.0498 -76.0498 -115.05 -165.75 -115.05 -271.05c0 -105.3 39 -196.95 115.05 -273c76.0508 -76.0498 165.75 -113.1 271.051 -113.1zM502.15 -62.7852zM502.15 -62.7852zM502.15 -62.7852
c105.3 0 193.05 35.0996 267.149 109.2c74.1006 74.0996 111.15 163.8 111.15 269.1c0 105.3 -37.0498 193.05 -111.15 267.15c-74.0996 74.0996 -161.85 111.149 -267.149 111.149c-105.301 0 -195 -37.0498 -269.101 -111.149
c-74.0996 -74.1006 -109.2 -161.851 -109.2 -267.15c0 -105.3 35.1006 -195 109.2 -269.1c74.1006 -74.1006 163.8 -109.2 269.101 -109.2zM502.15 -62.7852zM502.15 227.765c-23.4004 0 -44.8506 7.7998 -62.4004 25.3496c-17.5498 17.5508 -25.3496 39 -25.3496 62.4004
c0 23.4004 7.7998 42.9004 25.3496 60.4502s39 27.2998 62.4004 27.2998c23.3994 0 44.8496 -9.75 62.3994 -27.2998c17.5498 -17.5498 25.3506 -37.0498 25.3506 -60.4502c0 -23.4004 -7.80078 -44.8496 -25.3506 -62.4004
c-17.5498 -17.5498 -39 -25.3496 -62.3994 -25.3496zM502.15 227.765zM433.9 268.715l118.949 120.899l286.65 -292.5l-95.5498 -105.3zM433.9 268.715z" />
    <glyph glyph-name="p" unicode="p" horiz-adv-x="1207" 
d="M14.6602 476.55l-16.3809 -28.0791v-163.8h88.9209v107.64h70.2002v-107.64h56.1602v105.3h74.8789v-105.3h42.1211v107.64h74.8789v-107.64h196.561v280.8h-42.1201c-7.01953 0 -16.3799 -4.68066 -23.4004 -9.36035
c-7.01953 -4.68066 -9.35938 -14.04 -9.35938 -21.0605v-173.16l-154.44 128.7h-327.601c-14.0391 -2.33984 -23.3994 -7.01953 -30.4189 -14.04zM14.6602 90.4502l30.4189 -14.04h327.601l154.44 131.04v-177.84c0 -7.02051 2.33984 -14.04 9.35938 -18.7207
c7.02051 -4.67969 16.3809 -9.36035 23.4004 -9.36035h42.1201v283.142h-196.561v-109.981h-74.8789v109.981h-42.1211v-107.642h-74.8789v107.642h-56.1602v-109.981h-70.2002v109.981h-88.9209v-166.142c2.34082 -11.7002 7.02051 -21.0586 16.3809 -28.0791z
M14.6602 90.4502zM1189.34 476.55l-30.4189 14.04h-329.941l-152.1 -128.7v173.16c0 7.02051 -2.33984 16.3799 -9.35938 21.0605c-7.02051 4.67969 -16.3809 9.36035 -23.4004 9.36035h-42.1201v-280.8h194.221v107.64h77.2188v-107.64h42.1211v105.3h72.5391v-105.3
h60.8398v107.64h67.8604v-107.64h88.9209v163.8c-2.34082 11.7002 -7.02051 21.0586 -16.3809 28.0791zM1189.34 90.4502l16.3809 28.0791v166.142h-88.9209v-109.981h-67.8604v109.981h-60.8398v-107.642h-72.5391v107.642h-42.1211v-109.981h-77.2188v109.981h-194.221
v-283.142h42.1201c7.01953 0 16.3799 4.68066 23.4004 9.36035c7.01953 4.68066 9.35938 11.7002 9.35938 18.7207v177.84l152.1 -131.04h329.941c14.0391 2.33984 23.3994 7.01953 30.4189 14.04zM1189.34 90.4502z" />
    <glyph glyph-name="q" unicode="q" horiz-adv-x="1040" 
d="M-3.25 61.04l3.95996 -63.3604l1035.54 3.96094v69.2998l-516.779 754.38zM305.63 342.2l217.8 334.62l249.479 -354.42l-51.4795 -7.9209l-112.859 126.721l-43.5605 -116.82l-95.0391 156.42l-110.88 -146.521zM305.63 342.2z" />
    <glyph glyph-name="r" unicode="r" horiz-adv-x="344" 
d="M16.2754 815.154l344.736 -197.567v-622.944l-340.703 -201.6l-40.3203 66.5273l296.352 175.393v534.239l-296.352 169.345zM16.2754 815.154z" />
    <glyph glyph-name="s" unicode="s" horiz-adv-x="695" 
d="M493.005 369.361l66.0332 72.8643l-120.682 81.9727l177.606 282.348l77.4189 -15.9404l-175.33 -248.193l175.33 -111.571l-161.669 -100.188l84.25 -63.7568l-200.376 -29.6006l31.8779 193.545zM35.3281 -208.997l-38.71 70.5879l282.349 173.052v539.648
l-282.349 173.052l38.71 70.5879l321.058 -198.1v-630.729z" />
    <glyph glyph-name="t" unicode="t" horiz-adv-x="433" 
d="M185.037 817.382h50.0938v-1013.26h-50.0938v1013.26zM46.1416 -195.882l-47.8174 68.3086l339.271 170.775v535.096l-339.271 170.775l47.8174 68.3086l382.534 -193.544v-623.899zM46.1416 817.382h50.0918v-1013.26h-50.0918v1013.26z" />
    <glyph glyph-name="u" unicode="u" horiz-adv-x="411" 
d="M412 76h-408v201h408v-201zM325 -118h-321v34h321l-93 60l23 24l154 -101l-154 -99l-23 22z" />
    <glyph glyph-name="v" unicode="v" horiz-adv-x="1421" 
d="M1128 1h-321v34h321l-93 60l23 24l154 -101l-154 -99l-23 22zM920 502h171v-109h121v-200h-408v200h116v109z" />
    <glyph glyph-name="w" unicode="w" horiz-adv-x="819" 
d="M610 190h-408v200h408v-200zM526 2h-321v34h321l-93 59l23 24l154 -100l-154 -99l-23 22zM402 508l50 52l-92 58l71 162l59 -12l-68 -138l133 -80l-124 -72l64 -45l-152 -20l23 137z" />
    <glyph glyph-name="x" unicode="x" horiz-adv-x="819" 
d="M565 190h-149h-148l148 391zM527 1h-321v35h321l-81 51l11 32l155 -100l-155 -100l-11 31zM553 753l34 -35l-136 -135l136 -137l-34 -34l-137 137l-136 -137l-34 35l136 136l-135 135l34 35l135 -136z" />
    <glyph glyph-name="y" unicode="y" horiz-adv-x="1126" 
d="M1082.75 0.25h-742.5h-6.75h-4.5h-9c-87.75 0 -164.25 31.5 -227.25 96.75s-94.5 144 -94.5 234c0 92.25 31.5 168.75 96.75 234s141.75 96.75 234 96.75c74.25 0 141.75 -20.25 198 -63l589.5 -522l11.25 -31.5l-4.5 -9l-18 -29.25z" />
    <glyph glyph-name="z" unicode="z" horiz-adv-x="1192" 
d="M-0.375 358.129v-11.8809c0 -92.6641 33.2637 -173.448 99.791 -242.352c66.5283 -68.9053 147.312 -102.168 239.975 -102.168h9.50586h4.75195h4.75195h784.08c9.50391 0 16.6309 2.375 23.7598 7.12695c16.6309 7.12891 26.1348 21.3848 26.1348 42.7695
c0 14.2559 -4.75 23.7598 -14.2559 30.8867l-622.51 551.232c-61.7783 45.1445 -130.681 66.5273 -206.713 66.5273c-95.041 0 -178.2 -33.2627 -247.105 -99.791c-68.9023 -66.5283 -102.166 -144.937 -102.166 -239.977l206.813 -27.0508
c0 44.9463 18.0029 85.0781 52.375 118.788c34.3721 33.709 76.9277 51.3672 127.668 51.3672l50.7402 -8.02637c16.3682 -3.20996 32.7344 -9.63184 50.7393 -20.8682l346.994 -300.18l3.27344 -1.60547l3.27441 -4.81641v-4.81445
c0 -4.81641 -1.63672 -8.02637 -6.54785 -9.63184l-3.27344 -1.60547h-456.657l-6.54883 1.60547c-45.8281 4.81543 -85.1104 22.4727 -116.209 56.1836c-31.0986 33.71 -45.8281 70.6289 -45.8281 115.576v6.42285z" />
    <glyph glyph-name="A" unicode="A" horiz-adv-x="1755" 
d="M1046 275h-115v132h115v-132zM879 275h-116v132h116v-132zM1317 186l-40 -39l-189 190l189 190l40 -39l-151 -151zM483 434c12 12 27 22 45 29c9 3 18 6 27 8s18 3 27 3c39 0 74 -14 104 -44c12 -12 22 -28 29 -46s11 -36 11 -54c0 -39 -14 -73 -44 -103
c-12 -12 -27 -22 -45 -29l-27 -8c-9 -2 -19 -4 -28 -4c-39 0 -73 15 -103 45c-12 12 -23 27 -30 45s-11 36 -11 54c0 39 15 74 45 104z" />
    <glyph glyph-name="B" unicode="B" horiz-adv-x="1871" 
d="M752 331v-16v-9l-2 -7l-4 -15l-2 -7l-3 -7l-5 -14c-2 -4 -4 -8 -7 -12l-5 -8l-14 -15c-29 -26 -63 -40 -101 -40s-71 13 -101 40l-7 7l-9 10l-7 13l-8 17l-8 28l-2 18l-1 11c0 12 3 26 9 45s16 38 31 57c29 27 63 41 100 41c35 0 68 -14 99 -41s47 -59 47 -96h-25h-22
c0 24 -9 45 -29 64s-44 29 -71 29c-26 0 -48 -10 -67 -29s-28 -42 -28 -70v-9l2 -10c0 -7 2 -15 6 -23l8 -13l13 -17c10 -9 21 -16 32 -20s23 -6 37 -6c25 0 49 8 69 26l21 35c5 16 7 31 7 43h47zM1401 331c0 -21 -4 -42 -11 -61c-6 -19 -17 -35 -32 -49
c-29 -26 -63 -40 -101 -40s-71 13 -101 40c-6 5 -16 21 -31 47l-8 28l-3 29v16l2 11l3 11l2 8l3 8c2 7 13 23 31 48c28 27 61 41 99 41c34 0 67 -14 99 -41s48 -59 48 -96h-26h-21c0 24 -10 45 -30 64s-44 29 -71 29s-49 -10 -67 -29c-2 -2 -9 -13 -21 -32l-4 -15l-2 -11
v-12v-9l1 -10c0 -8 2 -15 6 -23s11 -18 22 -30c10 -9 21 -16 32 -20s23 -6 37 -6c25 0 48 8 68 26c7 7 15 19 21 35l8 43h47zM906 394v-133h-115v133h115zM1074 394v-133h-115v133h115z" />
    <glyph glyph-name="C" unicode="C" horiz-adv-x="2023" 
d="M870 325l-3 -31c0 -6 -1 -12 -2 -16l-6 -14c-3 -10 -8 -19 -13 -27l-18 -22c-29 -26 -62 -39 -100 -39s-71 13 -101 40c-6 5 -17 21 -32 47l-8 28l-3 19v10c0 12 4 26 10 45s16 38 31 57c29 27 62 41 99 41c35 0 68 -15 99 -42s47 -59 47 -96h-25h-21c0 24 -10 46 -30 65
s-43 28 -70 28s-50 -9 -68 -28s-27 -42 -27 -70v-9l1 -10l1 -9c1 -3 2 -7 5 -11l8 -16l14 -17c10 -9 21 -16 32 -20s23 -7 37 -7c25 0 48 9 68 27c8 7 14 19 20 35s9 30 9 42h46zM1519 325c0 -21 -4 -41 -11 -60c-6 -19 -17 -36 -31 -49s-31 -24 -49 -30l-14 -4l-14 -4
l-10 -1l-14 -1c-38 0 -71 13 -101 40c-6 4 -17 20 -32 47l-8 28l-2 29v12l2 14l2 13c1 5 3 11 6 15c2 7 12 23 30 48c28 27 62 41 100 41c39 0 74 -14 103 -42s43 -60 43 -96h-26h-21c0 24 -9 46 -29 65s-43 28 -71 28c-27 0 -50 -9 -68 -28s-27 -43 -27 -70v-9l1 -10
c1 -5 3 -13 7 -23c4 -9 11 -19 21 -30c10 -9 21 -16 32 -20s23 -7 37 -7c24 0 48 9 69 27c6 5 11 16 18 35s10 32 10 42h47zM564 132v376h-54v-376h54zM1024 388v-133h-115v133h115zM1192 388v-133h-115v133h115z" />
    <glyph glyph-name="grave" unicode="`" horiz-adv-x="295" 
d="M69 39v-111h-69v535h69v-111h159v111h68v-535h-68v111h-159zM216 293h-136l148 -183v171l-148 -182h137l-148 182v-171z" />
    <glyph glyph-name="D" unicode="D" horiz-adv-x="746" 
d="M289 177v441h-102v79h372v-79h-105v-441h105v-80h-372v80h102z" />
    <glyph glyph-name="E" unicode="E" horiz-adv-x="846" 
d="M634 406v-55h-112v-191h112v-56h-423v302h423z" />
    <glyph glyph-name="F" unicode="F" horiz-adv-x="390" 
d="M194 445c-13 0 -26 -6 -37 -16s-17 -23 -17 -38c0 -16 5 -29 16 -40s23 -16 38 -16l-2 -43c-23 0 -45 11 -65 31c-19 21 -28 44 -28 70c0 22 9 44 27 64s41 31 66 31zM200 488c24 0 45 -9 64 -28s28 -42 28 -70c0 -25 -8 -47 -26 -67s-40 -29 -66 -29l-2 41
c13 0 25 6 36 17s16 23 16 38c0 14 -5 27 -15 38c-9 11 -22 17 -37 17l2 40v3zM192 292h4v43zM200 294l-3 -2l-1 43zM194 445l2 43zM198 445l-1 43zM194 642c-13 0 -26 -5 -37 -15s-17 -23 -17 -38c0 -16 5 -30 15 -41c11 -11 24 -15 39 -15l-2 -44c-23 0 -45 10 -65 30
c-19 21 -28 44 -28 70c0 17 9 37 27 60s41 35 66 35zM200 684c24 0 45 -9 64 -29s28 -43 28 -69c0 -24 -9 -46 -27 -66s-40 -30 -65 -30l-2 43c13 0 25 5 36 16s16 23 16 38c0 14 -5 27 -15 38c-9 11 -22 17 -37 17l2 39v3zM192 489h4v44zM200 490l-3 -1l-1 44zM194 642
l2 42zM198 642l-1 42zM194 249c-13 0 -26 -5 -37 -15s-17 -23 -17 -38c0 -16 5 -29 16 -40s23 -16 38 -16l-2 -45c-27 0 -49 9 -67 29s-27 44 -27 71c0 24 9 46 27 65s41 29 67 29zM200 289c24 0 45 -9 64 -28s28 -41 28 -69c0 -8 -2 -19 -6 -32s-10 -26 -20 -36
c-18 -19 -40 -28 -66 -28l-2 44c14 0 26 5 37 16c10 11 15 24 15 38s-5 27 -15 38c-9 11 -22 17 -37 17l2 37v3zM192 95h3l1 45zM200 96l-3 -1v45zM194 249l1 40zM198 249l-1 40z" />
    <glyph glyph-name="G" unicode="G" horiz-adv-x="295" 
d="M127.5 547l168 79.2002l-168 84l168 82.7998l-87.5996 27.5996l-208.801 -108l159.601 -82.7998l-159.601 -80.3994l159.601 -82.8008l-159.601 -82.7998l159.601 -81.5996l-159.601 -81.6006l159.601 -82.7998l-159.601 -81.5996l208.801 -106.8l87.5996 20.3994
l-168 84l170.4 80.4004l-170.4 84l168 79.2002l-168 84l168 80.3994z" />
    <glyph glyph-name="H" unicode="H" horiz-adv-x="831" 
d="M210 180h115v459h-115v-69h55v-322h-55v-68zM623 180h-114v459h114v-69h-55v-322h55v-68z" />
    <glyph glyph-name="I" unicode="I" horiz-adv-x="831" 
d="M265 391h60v-85h-60v85zM568 273h-59h59zM325 544v95h-115v-69h55v-26h60zM325 273h-60v-25h-55v-68h115v93zM509 544v95h114v-69h-55v-26h-59zM509 273v-93h114v68h-55v25h-59zM265 512h60v-86h-60v86zM509 391h59v-85h-59v85zM509 512h59v-86h-59v86z" />
    <glyph glyph-name="J" unicode="J" horiz-adv-x="923" 
d="M232 418v-7h15v7h-15zM678 400v8h14v-8h-14zM461 629v14h9c59 0 112 -22 156 -65s66 -95 66 -155v-4v-9h-14h-217v219c-56 0 -106 -21 -149 -62s-65 -91 -65 -149l-8 -1l-6 1c0 60 22 113 67 158s98 67 161 67v-14zM232 409h15h214v-214h6c54 0 101 18 141 56
s63 83 69 138l1 11h8h6c0 -60 -23 -112 -69 -155c-5 -5 -28 -21 -71 -47c-12 -5 -27 -9 -42 -12s-31 -5 -46 -5h-7c-54 0 -103 19 -144 57s-67 88 -80 151l-1 10v10z" />
    <glyph glyph-name="K" unicode="K" horiz-adv-x="819" 
d="M614 364c0 -30 -4 -58 -15 -85c-8 -22 -24 -46 -45 -70c-18 -16 -41 -30 -66 -41l-17 -6l-24 -6l-17 -3l-19 -1c-53 0 -100 19 -142 58l-13 12l-13 17c-7 11 -14 24 -20 37l-11 39l-4 42v18c0 7 1 14 3 18l2 11l2 9l4 10v3l4 7l3 10l4 9c2 5 6 11 11 17l4 8l7 9l14 16
c40 38 88 58 141 58c57 0 105 -21 146 -60s61 -85 61 -136h-36h-30c0 35 -15 65 -42 92s-60 40 -100 40c-37 0 -69 -13 -95 -40s-39 -60 -39 -99v-13l1 -14l3 -11l6 -17c5 -11 15 -27 30 -47c29 -25 63 -38 99 -38c35 0 67 13 96 38c11 9 21 26 28 49l9 31l3 15l1 14h66z
M589 330h-358l1 61h357v-61z" />
    <glyph glyph-name="L" unicode="L" horiz-adv-x="1673" 
d="M418 144v69h232l14 27l13 26l16 26l18 19l19 13l19 11l28 8l25 2l25 -2l20 -5l23 -11l17 -11l16 -14l14 -16l10 -17l10 -21l10 -20l11 -15h161v-69h-172l-29 56c-8 15 -19 29 -34 42l-19 12l-21 11l-21 6l-21 1l-22 -1c-5 0 -10 -2 -15 -5l-21 -9l-16 -11
c-8 -4 -23 -23 -44 -58l-8 -20l-14 -24h-244zM1119 277v-197l134 96z" />
    <glyph glyph-name="M" unicode="M" horiz-adv-x="1536" 
d="M750 321h-349h-16v-46v-113h69v90h222l-19 -16v-74l97 90h327v-90h69v112v47h-15h-307l61 57l-60 55h321v161h-70v-92h-324l-99 92v-74l19 -18h-222v92h-69v-161h365l60 -55z" />
    <glyph glyph-name="N" unicode="N" horiz-adv-x="1536" 
d="M1150 439h-15h-82v69h28v93h69v-162zM997 439h-117v68h117v-68zM1150 168h-69v93h-29v67h98v-160zM996 260h-117v68h117v-68zM657 439h-116v68h116v-68zM479 439h-94v67v94h69v-93h25v-68zM656 260h-116v68h116v-68zM479 260h-25v-92h-69v94v66h16h78v-68zM1053 439v69
v-69zM479 260h-25h25v68h-78h78v-68zM885 384l-58 -55v-68h-74l-100 -93v74l58 54v33h36l59 55l-59 55h-36v34l-58 54v73l100 -93h74v-68z" />
    <glyph glyph-name="O" unicode="O" horiz-adv-x="1536" 
d="M746 589v-74l18 -17h-85l-98 91v-74l18 -17h-145v92h-69v-161h288l61 -56l-61 -57h-272h-16v-46v-111h69v89h145l-18 -17v-74l98 91h85l-18 -17v-74l98 91h237v-89h69v111v46h-15h-90h-128l60 57l-60 56h233v161h-70v-92h-236zM899 373l-61 -57h-87l61 57l-60 56h87z" />
    <glyph glyph-name="P" unicode="P" horiz-adv-x="1536" 
d="M908 507h172v91h70v-160h-168l61 -56l-59 -57h166v-161h-69v92h-170l-100 -91v74l17 17h-119l18 -17v-74l-97 91h-176v-92h-69v161h172l-61 57l61 56h-172v160h69v-91h178l95 91v-74l-18 -17h119l-17 17v74zM903 438h-267l-62 -56l62 -57h267l61 57z" />
    <glyph glyph-name="Q" unicode="Q" horiz-adv-x="461" 
d="M346 330l-189 -190l-40 39l151 151l-151 151l40 39z" />
    <glyph glyph-name="R" unicode="R" horiz-adv-x="352" 
d="M44 117v425h-97v-425h97zM289 329l-189 -190l-40 40l151 150l-151 151l40 40z" />
    <glyph glyph-name="S" unicode="S" horiz-adv-x="669" 
d="M503 233c0 -25 -5 -49 -13 -70c-7 -23 -19 -42 -36 -57s-34 -26 -54 -34s-41 -12 -62 -12c-44 0 -82 16 -116 47c-15 14 -28 32 -37 54l-9 32l-3 34v15v8l2 13c0 5 2 9 4 12l5 14c3 10 9 19 15 29l9 14l12 12c33 31 70 47 114 47c47 0 87 -16 120 -48s49 -68 49 -110h-29
h-25c0 29 -11 54 -34 75s-50 32 -82 32c-30 0 -54 -11 -76 -33s-33 -48 -33 -80v-11l2 -11l1 -10l5 -13c5 -15 14 -28 26 -39c23 -20 49 -30 79 -30c23 0 49 10 79 30c9 8 16 21 23 40s10 36 10 50h54z" />
    <glyph glyph-name="T" unicode="T" horiz-adv-x="657" 
d="M449 218c0 -25 -5 -49 -13 -70c-7 -23 -19 -42 -36 -57s-34 -26 -54 -34s-41 -12 -62 -12c-44 0 -82 16 -116 47c-15 14 -28 32 -37 54l-9 32l-3 19v15c0 18 0 27 2 30l9 32c3 10 9 20 15 30l9 13l12 13c33 31 70 46 114 46c47 0 87 -16 120 -48s49 -68 49 -110h-29h-25
c0 29 -11 54 -34 75s-50 32 -82 32c-30 0 -54 -10 -76 -32s-33 -49 -33 -81v-11l2 -11l1 -9l5 -14c5 -15 14 -27 26 -38c23 -20 49 -31 79 -31c23 0 49 11 79 31c9 8 16 20 23 39s10 36 10 50h54zM96 1v425h-97v-425h97z" />
    <glyph glyph-name="U" unicode="U" horiz-adv-x="1536" 
d="M38 716h75v-612h-75v612z" />
    <glyph glyph-name="V" unicode="V" horiz-adv-x="1222" 
d="M550 255c0 22 -8 42 -24 59s-36 25 -58 25c-23 0 -44 -8 -62 -23s-26 -36 -26 -60l-67 1c0 39 15 73 46 103s67 44 109 44c40 0 75 -14 104 -42s44 -64 44 -105zM616 245c0 -38 -15 -72 -46 -101s-67 -44 -106 -44c-40 0 -75 14 -105 43s-46 62 -46 101l67 4
c0 -21 8 -40 25 -57c18 -16 38 -24 60 -24s42 8 59 24s26 36 26 57l62 -3h4zM313 257v-5h67zM313 244v6l67 2zM550 255v-3h66zM550 249v3l66 -2zM857 254c0 22 -7 42 -23 59s-35 25 -59 25c-22 0 -43 -8 -61 -24s-26 -36 -26 -59l-69 2c0 39 15 73 46 103s68 44 110 44
c38 0 73 -14 103 -43s45 -64 45 -104zM923 245c0 -38 -15 -72 -45 -101s-65 -44 -107 -44c-34 0 -68 13 -101 41s-50 62 -50 103l68 2c0 -21 8 -40 25 -57c18 -16 37 -24 59 -24s42 9 59 25s26 35 26 56l62 -1h4zM619 257v-5l69 -1zM620 244l-1 6h69zM857 254v-3l66 1z
M857 247v3h66z" />
    <glyph glyph-name="W" unicode="W" horiz-adv-x="927" 
d="M641 271c0 46 -16 87 -49 120s-73 50 -120 50s-88 -16 -124 -48s-54 -73 -54 -120l-58 1c0 59 23 112 69 157s101 67 166 67c61 0 114 -22 159 -66s67 -97 67 -158l-27 -2zM697 255c0 -57 -23 -108 -69 -153c-23 -22 -48 -38 -75 -49s-56 -17 -87 -17
c-62 0 -115 22 -161 64s-69 94 -69 154l9 1l17 1h17l15 -1c0 -37 17 -73 51 -109s75 -53 122 -53c45 0 86 16 121 48s53 71 53 115l50 -1h6zM236 274v-8l58 -1v7zM236 254v10h58v-9zM641 271v-6l56 1v8zM641 257v7h56v-9zM466 177c-16 0 -27 2 -34 6s-17 10 -30 20
c-17 19 -26 41 -26 64c0 25 9 45 27 63c9 9 18 16 29 20l16 5l18 2c24 0 45 -9 63 -27c9 -8 16 -18 20 -30l5 -17l2 -16c0 -25 -9 -45 -27 -63s-38 -27 -63 -27z" />
    <glyph glyph-name="X" unicode="X" horiz-adv-x="1069" 
d="M536 484v-58h6c40 0 81 -12 125 -35c39 -27 58 -61 58 -103c0 -41 -20 -74 -61 -99c-6 -4 -27 -12 -62 -25l-33 -7l-34 -2c-40 0 -83 12 -129 33c-41 24 -63 57 -63 99c0 36 19 71 58 104c37 23 80 35 127 35h6l-1 58h-8c-65 0 -124 -16 -176 -50
c-54 -37 -81 -86 -81 -147c0 -59 28 -107 85 -144c51 -32 112 -49 182 -49c71 0 131 17 181 49c56 36 85 84 85 144c0 51 -27 99 -80 146c-49 34 -108 51 -176 51h-9z" />
    <glyph glyph-name="Y" unicode="Y" horiz-adv-x="788" 
d="M670 274c0 54 -20 100 -58 139s-85 59 -139 59c-55 0 -104 -19 -145 -57s-62 -84 -62 -139l-68 1c0 69 27 130 81 182s118 79 193 79c71 0 133 -26 185 -77s77 -112 77 -183l-30 -3zM734 256c0 -67 -26 -127 -80 -179c-27 -25 -56 -44 -87 -57s-65 -19 -101 -19
c-72 0 -135 25 -188 74s-79 109 -79 179l10 2h20h20h17c0 -43 20 -86 59 -127s87 -63 142 -63c53 0 100 20 141 57s62 81 62 133h57h7zM198 277v-9l68 -1v8zM199 254l-1 11h68v-9zM670 274v-7l64 1v10zM670 257v8h64v-9zM466 165c-18 0 -31 2 -39 6s-20 12 -35 24
c-20 22 -31 47 -31 74c0 29 10 52 31 73c10 10 22 19 34 24l19 5l21 2c28 0 52 -10 73 -31c10 -10 19 -21 24 -35l5 -19l2 -19c0 -29 -10 -54 -30 -74s-45 -30 -74 -30z" />
    <glyph glyph-name="Z" unicode="Z" 
d="M231 196l230 306l229 -306h-222h-15h-222z" />
    <glyph glyph-name="bracketleft" unicode="[" horiz-adv-x="1536" 
d="M396 58v-68h-78v68h78zM396 58v-68h-78v68h78zM396 58v-68h-78v68h78zM506 58v-68h-78v68h78zM506 58v-68h-78v68h78zM506 58v-68h-78v68h78z" />
    <glyph glyph-name="backslash" unicode="\" horiz-adv-x="1536" 
d="M1535 62v-68h-78v68h78zM1535 62v-68h-78v68h78zM1535 62v-68h-78v68h78zM1645 62v-68h-78v68h78zM1645 62v-68h-78v68h78zM1645 62v-68h-78v68h78zM1753 62v-68h-78v68h78zM1753 62v-68h-78v68h78zM1753 62v-68h-78v68h78zM1861 62v-68h-78v68h78zM1861 62v-68h-78v68
h78zM1861 62v-68h-78v68h78zM1207 62v-68h-78v68h78zM1207 62v-68h-78v68h78zM1207 62v-68h-78v68h78zM1318 62v-68h-78v68h78zM1318 62v-68h-78v68h78zM1318 62v-68h-78v68h78zM1425 62v-68h-78v68h78zM1425 62v-68h-78v68h78zM1425 62v-68h-78v68h78z" />
    <glyph glyph-name="bracketright" unicode="]" horiz-adv-x="1203" 
d="M354 112v25h676v-25h-676zM1111 56v287h-839v-287h839zM354 289h676v-25h-676v25zM354 213h676v-24h-676v24z" />
    <glyph glyph-name="asciicircum" unicode="^" horiz-adv-x="1527" 
d="M1089 334l-166 -91v-62l265 152l-268 160v-66zM1034 361v-54h-124v54h124zM837 361v-54h-123v54h123zM635 361v-54h-123v54h123z" />
    <glyph glyph-name="underscore" unicode="_" horiz-adv-x="1586" 
d="M1079 361v-55h-547v55h547zM1134 334l-165 -91v-62l264 152l-267 160v-66z" />
    <glyph glyph-name="less" unicode="&#x3c;" 
d="M197 224v-223h46v223h-46zM221 382l62 -62l-63 -63l-63 61zM243 224l94 96l-114 114l-118 -117l92 -93h46z" />
    <glyph glyph-name="equal" unicode="=" 
d="M160 279l-13 -16v-139l13 -16h28v-37h249v243h-249v-35h-28z" />
    <glyph glyph-name="greater" unicode="&#x3e;" 
d="M287 0zM287 0zM253 73h46v225l-12 -2l-12 -1l-11 1l-11 2v-225zM409 290l-31 -30l-49 50l30 30zM223 471l-30 -30l-49 49l30 30zM377 524l31 -30l-51 -50l-30 30zM192 341l30 -31l-50 -49l-30 30zM299 73l55 -73h-75h-3v20h31l-31 42l-31 -42h31v-20h-3h-77l57 73h46z
M328 392zM328 392zM328 391h37h6v-5c0 -25 -8 -46 -27 -64s-42 -27 -69 -27c-16 0 -35 10 -59 28s-35 40 -35 65h16l16 1h7l5 -1c0 -14 5 -26 15 -36c5 -4 11 -7 17 -10l18 -4c14 0 27 5 38 15s15 21 15 34v4zM224 389h-9h-11h-9h-6h-8v4c0 17 10 37 29 59s42 34 69 34
c24 0 45 -9 64 -28s28 -40 28 -65l-3 -1l-15 -1h-14l-11 1c0 14 -4 26 -14 36s-22 15 -36 15s-26 -4 -37 -14s-16 -21 -16 -36z" />
    <glyph glyph-name="question" unicode="?" horiz-adv-x="1111" 
d="M781 286c0 59 -22 111 -65 155s-95 66 -155 66c-64 0 -118 -21 -164 -63s-68 -95 -68 -157l-48 -1c0 65 28 126 83 183s121 85 199 85c73 0 136 -26 190 -78s80 -116 80 -190l-19 -1h-19zM833 263c0 -70 -28 -131 -83 -183s-119 -78 -193 -78c-73 0 -137 25 -192 76
s-83 112 -83 184l8 3l24 2l9 -1l6 -1c0 -57 21 -108 66 -150c23 -21 47 -36 73 -47l19 -7l27 -6c11 -2 24 -3 39 -3c60 0 113 21 159 62s69 92 69 151l8 2l18 -1l18 -3h8zM281 286v-9h48v9h-48zM282 262l-1 12h48v-9zM781 286v-9h52v9h-52zM781 265v9h52v-11zM690 284
c0 36 -13 67 -38 93s-57 39 -94 39c-30 0 -61 -13 -92 -38s-47 -56 -47 -93l-29 -1c0 41 17 79 51 113c16 15 34 27 55 35c10 4 20 7 31 9l17 3l15 1c29 0 49 -4 61 -12c18 -7 36 -18 53 -35c32 -32 48 -70 48 -114h-20h-11zM721 271c0 -42 -16 -79 -49 -110
s-72 -47 -117 -47h-15l-17 1l-15 3l-16 6c-19 7 -36 19 -52 35c-33 31 -49 68 -49 111l14 1h9h5c0 -33 13 -63 39 -89c13 -12 27 -22 43 -29c28 -6 45 -9 52 -9c36 0 67 12 95 36s42 55 42 92l9 1l18 -2h4zM390 284v-5h29v5h-29zM391 270l-1 7h29v-6zM690 284v-5h31v5h-31z
M690 272v5h31v-6z" />
    <glyph glyph-name="at" unicode="@" 
d="M164 399l32 32l289 -289l-32 -32zM193 110l-31 30l289 290l31 -32z" />
    <glyph glyph-name="hyphen" unicode="-" horiz-adv-x="746" 
d="M217 203v442h-102v79h227v-600h-227v79h102z" />
    <glyph glyph-name="zero" unicode="0" 
d="M370 187l-12 -1l-25 -10l-21 -11l-22 -13l-33 -19v-45l33 20l22 12l21 11l25 10l12 1v45zM767 87l-12 -6l-21 -9l-29 -15l-22 -14l-23 -11l-17 -4v45l17 4l23 11l22 14l29 15l21 9l12 5v-44zM639 73l-31 1l-31 10l-26 13l-19 11l-15 9l-21 10l-21 12l-16 10l-14 10l-13 9
l-17 10l-15 7l-13 2h-13v-35v-10h13l13 -2l15 -7l17 -10l13 -9l14 -10l16 -10l21 -11l21 -11l15 -9l19 -11l26 -13l31 -10l31 -1v45z" />
    <glyph glyph-name="one" unicode="1" horiz-adv-x="1022" 
d="M832 -7v197h74c17 0 29 -2 36 -6c9 -3 16 -9 21 -18c3 -5 5 -9 6 -13l2 -14c0 -8 -2 -16 -6 -24l-4 -5l-5 -5l-12 -8c12 -4 21 -10 27 -18l10 -29c0 -9 -2 -18 -6 -26l-6 -10c-2 -3 -5 -6 -9 -8l-9 -6l-12 -4l-14 -3h-18h-75zM858 107h43h8c8 0 13 1 16 2c7 2 13 5 16 10
s5 12 5 17c0 6 -1 11 -4 15c-2 4 -8 8 -15 12l-11 3h-19h-39v-59zM858 16h49h9c5 0 8 0 9 1l7 2l3 1l6 2c3 2 6 6 9 11l3 8l1 9c0 7 -2 13 -6 18c-3 5 -8 9 -16 12l-13 2l-16 1h-45v-67zM1087 -4v21c-11 -16 -26 -24 -45 -24c-9 0 -17 1 -23 4l-11 6l-6 6l-4 7l-4 11l-1 16
v7v89h24v-79v-16l2 -10c2 -7 4 -12 9 -15l9 -4c3 -1 6 -2 10 -2c7 0 13 2 19 6s11 9 14 15s5 15 5 28v77h23v-143h-21zM741 102c0 15 -6 28 -16 39s-23 16 -39 16c-15 0 -29 -5 -40 -15s-16 -23 -16 -39h-26c0 20 8 39 24 55s36 24 58 24s41 -8 57 -23s23 -34 23 -56z
M766 97c0 -20 -8 -38 -25 -54c-8 -7 -16 -13 -26 -17s-20 -6 -30 -6c-16 0 -34 8 -53 22s-28 32 -28 54l10 1h6h6l4 1c0 -14 5 -26 16 -37c11 -10 25 -16 40 -16c14 0 27 6 38 16s17 22 17 37l23 -1h2zM604 103v-2h26zM604 96v3l26 1zM766 103v-2h-25v-3l25 1v-2v6z" />
    <glyph glyph-name="two" unicode="2" 
d="M750 101c0 15 -6 28 -16 39s-23 16 -39 16c-15 0 -29 -6 -40 -16s-16 -23 -16 -39h-26c0 20 8 39 24 55s36 25 58 25s41 -8 57 -23s23 -34 23 -56zM775 95c0 -20 -8 -38 -25 -54c-8 -7 -16 -12 -26 -16s-20 -6 -30 -6c-16 0 -34 7 -53 21s-28 33 -28 55l10 1h6h6l4 1
c0 -14 5 -27 16 -38c11 -10 25 -15 40 -15c14 0 27 5 38 15s17 23 17 38l23 -2h2zM613 101v-2l26 1zM613 95v3h26zM775 102v-3l-25 1v-3l25 1v-3v7zM841 -11v197h87c16 0 30 -1 40 -5s18 -10 22 -18c6 -10 9 -20 9 -30c0 -8 -1 -14 -3 -17l-4 -10l-7 -7
c-1 -2 -15 -9 -42 -20l15 -10l11 -11l11 -15l34 -54h-33l-25 41l-19 27l-5 7l-8 6l-6 4c-2 1 -4 1 -6 1c-4 1 -9 2 -15 2h-30v-88h-26zM867 99h56c9 0 18 1 25 3s14 7 19 13l3 8l2 10c0 6 -5 13 -12 20s-18 12 -31 12h-62v-66zM1109 9l-13 -9l-13 -7l-13 -4l-14 -1
c-16 0 -28 3 -36 11s-12 18 -12 30v11l5 9l12 13c3 3 9 6 17 8l10 2l16 2h9c3 0 7 1 11 2c7 1 14 3 19 5v7c0 9 -3 16 -7 20c-6 5 -16 9 -28 9s-19 -2 -24 -6c-5 -3 -10 -10 -13 -21l-23 3c1 7 2 12 4 14c1 3 3 7 6 10l8 8l14 7l15 3l17 2h17c3 0 8 -2 13 -4c4 -1 7 -3 9 -5
l8 -6l7 -15l2 -24v-32v-26v-11l1 -10c1 -4 3 -8 6 -13h-26l-3 9zM1107 63l-17 -5l-22 -5c-5 0 -9 -1 -13 -2l-9 -3l-10 -7c-2 -5 -3 -9 -3 -12l3 -5l5 -7c5 -7 12 -10 21 -10c11 0 19 2 25 6c6 3 12 9 16 17l3 11l1 12v10z" />
    <glyph glyph-name="three" unicode="3" 
d="M363 125h-42h-140v348h180v-26h-154v-297h156v-25zM364 150h148v297h-150v26h176v-348h-174v25zM457 150l-56 163l13 25l7 22l-2 23l-8 20l-15 16l-16 9l-11 3h-7v-32h3l6 -2l8 -4l8 -9l5 -11l1 -12l-4 -12l-15 -37l55 -162h28zM263 150l56 163l-14 25l-6 22l2 23l8 20
l14 16l16 9l12 3h10v-32h-6l-7 -2l-8 -4l-8 -9l-4 -11l-1 -12l3 -12l15 -37l-54 -162h-28z" />
    <glyph glyph-name="four" unicode="4" 
d="M363 125h-42h-140v348h180v-26h-154v-297h156v-25zM364 150h148v297h-150v26h176v-348h-174v25zM433 377c-10 10 -23 18 -40 23l-18 5l-19 3c-30 0 -55 -9 -75 -29c-22 -21 -33 -48 -33 -80c0 -30 9 -54 29 -75l1 -1l-16 -16c-10 11 -19 25 -26 43l-8 29l-2 19
c0 38 13 70 40 97c12 12 30 22 51 28l27 7l15 3c17 0 34 -3 49 -9s30 -16 42 -28c-1 -3 -4 -6 -7 -9zM262 207l3 -3l16 16l-4 3zM270 199l-4 3l16 16l3 -3zM392 343c-12 11 -24 17 -37 17c-14 0 -26 -6 -38 -18c-12 -11 -18 -26 -18 -43c0 -16 5 -30 16 -41l-16 -15
c-14 16 -21 35 -21 56c0 10 2 21 6 31s10 19 18 26c17 16 34 24 54 24c19 0 36 -7 50 -21l-7 -7zM299 243l2 -2l15 16l-1 1zM304 238l-3 2l16 16l1 -1zM455 205l-6 -6c-7 -7 -20 -15 -40 -23l-27 -8c-9 -2 -16 -3 -23 -3c-34 0 -64 11 -89 34l2 4l4 5l7 6l2 1
c21 -18 46 -27 73 -27c19 0 43 9 73 27l5 5zM400 257l-3 -3c-12 -10 -25 -15 -39 -15s-28 6 -40 16l-7 -8l-7 -9c17 -14 35 -20 55 -20c18 0 35 6 51 19l7 6zM392 343zM392 343zM392 343zM392 343zM418 360l49 55l32 -76z" />
    <glyph glyph-name="five" unicode="5" 
d="M401 388h-13c0 7 -2 13 -7 19s-12 8 -20 8l-19 -7c-5 -5 -9 -12 -10 -20h-13c0 10 4 20 12 28s18 12 30 12c11 0 20 -4 28 -12s12 -17 12 -28zM360 346c-3 0 -13 4 -29 11c-8 7 -11 16 -11 28l12 1l10 -19c5 -5 11 -7 18 -7l4 1l11 6c9 5 13 12 13 19l12 -1
c0 -11 -5 -19 -12 -27l-12 -7zM375 201h-30v145h30v-145zM360 164h-18l-31 3l-22 13l-28 24l-15 22l-11 24l-8 26l8 5l12 -21l18 -24l17 -17l23 -13l20 -5l17 -1h18v-36zM493 276l-8 -26l-11 -24l-15 -22l-28 -24l-23 -13l-30 -3h-18v36h18l17 1l19 5l23 13l18 17l18 24
l12 21zM332 386l-13 1l1 -2zM388 386l13 1zM363 125h-42h-140v348h180v-26h-154v-297h156v-25zM364 150h148v297h-150v26h176v-348h-174v25z" />
    <glyph glyph-name="six" unicode="6" 
d="M228 321h298v42h-298v-42zM228 363v-42v42zM526 363v-42v42zM227 388h452v46h-452v-46zM227 434v-46v46zM679 434v-46v46zM227 249h451v46h-451v-46zM227 295v-46v46zM678 295v-46v46zM227 111h452v46h-452v-46zM227 157v-46v46zM679 157v-46v46zM227 181h299v43h-299
v-43zM227 224v-43v43zM526 224v-43v43z" />
    <glyph glyph-name="seven" unicode="7" horiz-adv-x="987" 
d="M739 122v344h-491v-344h391h100zM639 272h-292v40h292v-40zM615 410l-268 -209v18h292v-20l-268 211h244zM639 388v-20h-292v18l268 -209h-245z" />
    <glyph glyph-name="eight" unicode="8" horiz-adv-x="1213" 
d="M449 384l-173 173l46 45l171 -170zM493 432l6 4l9 5l17 9c20 9 41 14 63 14c15 0 36 -4 62 -12l16 -7c5 -2 11 -5 17 -10l170 171l45 -46l-173 -173c14 -24 21 -51 21 -81v-19l-2 -14l-8 -21l-14 -29l173 -173l-46 -45l-171 171l-13 -8l-15 -7c-20 -9 -41 -14 -62 -14
s-44 5 -66 14l-16 7l-15 11l-172 -169l-46 45l176 173c-5 11 -10 22 -14 35l-4 20l-1 23c0 17 2 29 5 39c3 13 8 27 14 39z" />
    <glyph glyph-name="nine" unicode="9" horiz-adv-x="819" 
d="M204 -1h405v764h-405v-764z" />
    <glyph glyph-name="colon" unicode=":" 
d="M129 216l153 203l153 -203h-148h-11h-147zM297 63h8v152h-46v-4v-148h13h25zM282 1l50 62h-99zM282 1zM282 1z" />
    <glyph glyph-name="semicolon" unicode=";" 
d="M285 247v-37h-4h-148l153 204l153 -204h-148h-5v37h79l-79 107l-80 -107h79zM285 -2l50 62h-99zM285 -2zM300 60h8h-8zM262 210v-150h46v150h-46z" />
    <glyph glyph-name="period" unicode="." horiz-adv-x="746" 
d="M342 124h-227v600h227v-79h-102v-442h102v-79z" />
    <glyph glyph-name="slash" unicode="/" 
d="M138 1h47v245h-47v-245zM161 245c-22 0 -41 8 -56 23s-23 35 -23 58c0 22 8 41 24 57c7 7 16 12 25 16l15 5l17 2c21 0 39 -8 55 -24c7 -7 13 -16 17 -26l4 -13l3 -18c0 -22 -8 -42 -23 -57s-35 -23 -58 -23z" />
    <glyph glyph-name="comma" unicode="," horiz-adv-x="819" 
d="M613 127h-410v257h410v-257z" />
    <glyph glyph-name="asterisk" unicode="*" horiz-adv-x="398" 
d="M200 396c55 0 101 -20 140 -59s58 -85 58 -140s-19 -102 -58 -141s-85 -59 -140 -59s-102 20 -141 59s-59 86 -59 141s20 101 59 140s86 59 141 59zM200 354c-44 0 -81 -15 -112 -46s-46 -67 -46 -111s15 -81 46 -112s68 -46 112 -46s81 15 111 46s45 68 45 112
s-15 80 -45 111s-67 46 -111 46zM187 209l134 132l21 -22l-133 -133zM218 197c0 -5 -2 -11 -6 -14s-7 -5 -12 -5s-10 2 -14 6s-6 8 -6 13s2 8 6 12s9 6 14 6s8 -2 12 -5s6 -8 6 -13z" />
    <glyph glyph-name="parenright" unicode=")" horiz-adv-x="1020" 
d="M512 816.437c-140.425 0 -261.48 -50.8447 -360.746 -150.11c-99.2656 -99.2666 -147.69 -217.901 -147.69 -358.326s48.4248 -261.48 147.69 -360.746s220.321 -147.69 360.746 -147.69s259.06 48.4248 358.326 147.69c99.2656 99.2656 150.11 220.321 150.11 360.746
s-50.8447 259.06 -150.11 358.326c-99.2666 99.2656 -217.901 150.11 -358.326 150.11zM512 763.171c128.32 0 234.848 -43.5811 324.431 -133.163c89.5811 -89.5801 130.74 -196.11 130.74 -322.008s-41.1592 -234.848 -130.74 -324.431
c-89.583 -89.5811 -196.11 -133.161 -324.431 -133.161s-234.848 43.5801 -324.431 133.161c-89.5811 89.583 -135.581 198.533 -135.581 324.431s46 232.428 135.581 322.008c89.583 89.582 196.11 133.163 324.431 133.163zM512 661.484
c96.8438 0 179.162 -33.8965 249.376 -104.108c70.2119 -70.2139 104.108 -152.532 104.108 -249.376s-33.8965 -181.584 -104.108 -251.796c-70.2139 -70.2119 -152.532 -104.108 -249.376 -104.108s-181.584 33.8965 -251.796 104.108
c-70.2119 70.2119 -106.53 154.952 -106.53 251.796s36.3184 179.162 106.53 249.376c70.2119 70.2119 154.952 104.108 251.796 104.108zM512 714.748c-111.371 0 -205.796 -41.1582 -285.692 -121.056c-79.8975 -79.8965 -121.056 -174.321 -121.056 -285.692
s41.1582 -208.217 121.056 -288.113c79.8965 -79.8965 174.321 -118.635 285.692 -118.635s205.796 38.7383 285.692 118.635c79.8975 79.8965 121.056 176.742 121.056 288.113s-41.1582 205.796 -121.056 285.692c-79.8965 79.8975 -174.321 121.056 -285.692 121.056z
M512 661.484c96.8438 0 179.162 -33.8965 249.376 -104.108c70.2119 -70.2139 104.108 -152.532 104.108 -249.376s-33.8965 -181.584 -104.108 -251.796c-70.2139 -70.2119 -152.532 -104.108 -249.376 -104.108s-181.584 33.8965 -251.796 104.108
c-70.2119 70.2119 -106.53 154.952 -106.53 251.796s36.3184 179.162 106.53 249.376c70.2119 70.2119 154.952 104.108 251.796 104.108zM512 714.748c-111.371 0 -205.796 -41.1582 -285.692 -121.056c-79.8975 -79.8965 -121.056 -174.321 -121.056 -285.692
s41.1582 -208.217 121.056 -288.113c79.8965 -79.8965 174.321 -118.635 285.692 -118.635s205.796 38.7383 285.692 118.635c79.8975 79.8965 121.056 176.742 121.056 288.113s-41.1582 205.796 -121.056 285.692c-79.8965 79.8975 -174.321 121.056 -285.692 121.056z
M512 789.803c133.162 0 244.534 -48.4219 338.957 -142.846c94.4238 -94.4229 142.846 -205.795 142.846 -338.957s-48.4219 -246.954 -142.846 -341.378c-94.4229 -94.4238 -205.795 -142.846 -338.957 -142.846s-246.954 48.4219 -341.378 142.846
c-94.4238 94.4238 -142.846 208.216 -142.846 341.378s48.4219 244.534 142.846 338.957c94.4238 94.4238 208.216 142.846 341.378 142.846zM512 688.116c-106.53 0 -196.11 -36.3174 -271.166 -111.372c-75.0547 -75.0547 -111.37 -162.214 -111.37 -268.744
s36.3154 -196.11 111.37 -271.166c75.0557 -75.0547 164.636 -111.37 271.166 -111.37s196.11 36.3154 268.744 111.37c72.6338 75.0557 111.372 164.636 111.372 271.166s-38.7383 193.689 -111.372 268.744s-162.214 111.372 -268.744 111.372zM512 53.7822
c70.2119 0 130.74 24.2109 179.162 72.6338c48.4229 48.4219 72.6338 111.372 72.6338 181.584s-24.2109 130.74 -72.6338 179.162c-48.4219 48.4229 -108.95 72.6338 -179.162 72.6338s-133.162 -24.2109 -181.584 -72.6338
c-48.4229 -48.4219 -75.0547 -108.95 -75.0547 -179.162s26.6318 -133.162 75.0547 -181.584c48.4219 -48.4229 111.372 -72.6338 181.584 -72.6338zM512 104.626c-55.6855 0 -104.107 19.3682 -142.846 58.1064c-38.7383 38.7373 -60.5283 89.582 -60.5283 145.268
s21.79 104.107 60.5283 142.846s87.1602 60.5283 142.846 60.5283s104.107 -21.79 142.846 -60.5283s60.5283 -87.1602 60.5283 -142.846s-21.79 -106.53 -60.5283 -145.268c-38.7383 -38.7383 -87.1602 -58.1064 -142.846 -58.1064zM512 77.9932zM512 77.9932zM512 77.9932
c-62.9492 0 -118.634 24.2109 -162.216 67.791c-43.5801 43.582 -65.3691 99.2666 -65.3691 162.216s21.7891 116.214 65.3691 159.794c43.582 43.5801 99.2666 67.791 162.216 67.791s116.214 -24.2109 159.794 -67.791c43.5801 -43.5801 67.791 -96.8447 67.791 -159.794
s-24.2109 -118.634 -67.791 -162.216c-43.5801 -43.5801 -96.8447 -67.791 -159.794 -67.791zM512 77.9932z" />
    <glyph glyph-name="braceleft" unicode="{" 
d="M581.115 735.014c217.471 0 393.324 -176.004 393.324 -393.817c0 -217.794 -176.324 -394.341 -393.775 -394.341c0 0 -67.209 0.132812 -101.178 0.132812h-174.84c-4.77344 -0.287109 -34.6543 0 -32.0332 0.287109
c-124.66 9.04492 -223.053 112.994 -223.053 240.254h0.154297c0 42.8057 34.6641 77.5303 77.4199 77.5303c42.7441 0 77.4102 -34.7246 77.4102 -77.5303c0 -0.133789 -0.0625 -0.277344 -0.0625 -0.461914c0.265625 -47.1748 38.5156 -85.3965 85.7246 -85.3965
c47.3008 0 85.7441 38.458 85.7441 85.8584c0 44.9902 -34.6523 81.7656 -78.6055 85.457c-0.501953 -0.0400391 -0.953125 -0.0917969 -1.41406 -0.0917969c-37.5215 0 -67.9473 30.4795 -67.9473 68.0557c0 37.5645 30.4453 68.0645 67.9473 68.0645
c0.246094 0 0.451172 -0.0400391 0.6875 -0.0400391c44.3418 3.28125 79.332 40.2725 79.332 85.499c0 47.4004 -38.4219 85.8271 -85.7441 85.8271c-47.0762 0 -85.2129 -37.9551 -85.6621 -84.9863c0 -42.8066 -34.666 -77.5205 -77.4102 -77.5205
c-42.4688 0 -76.9082 34.2422 -77.3789 76.6797h-0.185547c0 127.198 98.4766 231.361 223.238 240.335c-0.738281 0.0410156 1.20703 0.205078 2.92969 0.205078c4.79102 0.287109 9.625 0.47168 14.4785 0.47168c4.875 0 9.72852 -0.18457 14.5215 -0.47168h228.244
h48.1328zM649.789 495.889c0 46.4053 -37.543 84.043 -83.9023 84.043c-46.3281 0 -83.9336 -37.6377 -83.9336 -84.043c0 -46.3955 37.6055 -84.0225 83.9336 -84.0225c46.3594 0 83.9023 37.627 83.9023 84.0225zM649.83 298h-0.0410156
c0 40.2627 -37.5742 72.916 -83.9023 72.916c-46.3691 0 -83.9336 -32.6426 -83.9336 -72.916h-0.0410156v-130.479h0.523438c4.3418 -36.7461 40.0508 -65.3691 83.4609 -65.3691c43.4004 0 79.0898 28.623 83.4512 65.3691h0.501953v130.479h-0.0195312z" />
    <glyph glyph-name="uniF1C0" unicode="&#xf1c0;" horiz-adv-x="870" 
d="M435 377.513c170.517 0 341.6 30.5898 435.072 96.3047v-96.3047c0 -79.8779 -194.876 -145.025 -435.072 -145.025s-435.072 65.1475 -435.072 145.025v96.3047c93.4727 -65.7148 264.556 -96.3047 435.072 -96.3047zM435 -57.5596
c170.517 0 341.6 30.5908 435.072 96.3047v-96.3047c0 -79.877 -194.876 -145.024 -435.072 -145.024s-435.072 65.1475 -435.072 145.024v96.3047c93.4727 -65.7139 264.556 -96.3047 435.072 -96.3047zM435 159.977c170.517 0 341.6 30.5908 435.072 96.3047v-96.3047
c0 -79.877 -194.876 -145.024 -435.072 -145.024s-435.072 65.1475 -435.072 145.024v96.3047c93.4727 -65.7139 264.556 -96.3047 435.072 -96.3047zM435 812.584c240.196 0 435.072 -65.1475 435.072 -145.024v-72.5117c0 -79.877 -194.876 -145.024 -435.072 -145.024
s-435.072 65.1475 -435.072 145.024v72.5117c0 79.877 194.876 145.024 435.072 145.024z" />
    <glyph glyph-name="uniF043" unicode="&#xf043;" horiz-adv-x="543" 
d="M272 202.659c0 13.2344 -4.23438 25.9404 -10.5879 36.5283c-6.88086 10.5869 -34.9385 46.584 -46.0557 82.0527c-1.58789 5.82227 -6.88184 8.46973 -11.1162 8.46973c-4.23535 0 -9.5293 -2.64746 -11.1172 -8.46973
c-11.1172 -35.4688 -39.1729 -71.4658 -46.0557 -82.0527c-6.35156 -10.5879 -10.5879 -23.2939 -10.5879 -36.5283c0 -37.584 30.1748 -67.7588 67.7607 -67.7588c37.585 0 67.7598 30.1748 67.7598 67.7588zM543.04 270.42c0 -149.813 -121.228 -271.04 -271.04 -271.04
s-271.04 121.227 -271.04 271.04c0 53.4678 16.4102 103.229 42.8789 145.578c26.999 42.3506 140.284 185.812 183.164 328.742c6.88184 22.7627 28.0566 33.8799 44.9971 33.8799s38.6436 -11.1172 44.9971 -33.8799c42.8799 -142.931 156.165 -286.392 183.164 -328.742
c26.998 -42.3496 42.8789 -92.1104 42.8789 -145.578z" />
    <glyph glyph-name="uniF03E" unicode="&#xf03e;" horiz-adv-x="1002" 
d="M334.8 502.2c0 -55.3848 -44.9346 -100.319 -100.319 -100.319c-55.3857 0 -100.32 44.9346 -100.32 100.319c0 55.3848 44.9346 100.319 100.32 100.319c55.3848 0 100.319 -44.9346 100.319 -100.319zM869.84 301.56v-234.079h-735.68v100.319l167.199 167.2
l83.6006 -83.5996l267.521 267.52zM920 669.4h-836c-8.88184 0 -16.7197 -7.83789 -16.7197 -16.7197v-635.361c0 -8.88184 7.83789 -16.7197 16.7197 -16.7197h836c8.88184 0 16.7197 7.83789 16.7197 16.7197v635.361c0 8.88184 -7.83789 16.7197 -16.7197 16.7197z
M1003.6 652.681v-635.361c0 -45.9795 -37.6191 -83.5996 -83.5996 -83.5996h-836c-45.9805 0 -83.5996 37.6201 -83.5996 83.5996v635.361c0 45.9795 37.6191 83.5996 83.5996 83.5996h836c45.9805 0 83.5996 -37.6201 83.5996 -83.5996z" />
    <glyph glyph-name="uniF09E" unicode="&#xf09e;" horiz-adv-x="753" 
d="M202.928 104.285c0 -56.6689 -45.9756 -102.645 -102.643 -102.645c-56.6689 0 -102.645 45.9756 -102.645 102.645c0 56.667 45.9756 102.643 102.645 102.643c56.667 0 102.643 -45.9756 102.643 -102.643zM476.643 38.5293
c0.536133 -9.62402 -2.67188 -18.7119 -9.08789 -25.6611c-6.41504 -7.48438 -15.5039 -11.2275 -25.126 -11.2275h-72.1699c-17.6436 0 -32.0771 13.3662 -33.6807 31.0078c-15.5029 163.054 -144.877 292.427 -307.93 307.93
c-17.6416 1.60352 -31.0078 16.0371 -31.0078 33.6807v72.1699c0 9.62207 3.74316 18.7109 11.2275 25.126c5.88086 5.88086 14.4346 9.08789 22.9873 9.08789h2.67383c113.869 -9.08789 221.324 -58.8066 302.049 -140.064
c81.2578 -80.7246 130.977 -188.18 140.064 -302.049zM750.359 37.46c0.533203 -9.08887 -2.67383 -18.1758 -9.62402 -25.127c-6.41504 -6.94922 -14.9678 -10.6924 -24.5908 -10.6924h-76.4482c-18.1758 0 -33.1455 13.9004 -34.2139 32.0771
c-17.6426 310.603 -265.162 558.122 -575.765 576.3c-18.1768 1.06738 -32.0771 16.0371 -32.0771 33.6787v76.4482c0 9.62305 3.74316 18.1758 10.6924 24.5908c6.41602 6.41602 14.9697 9.62402 23.5225 9.62402h1.60449c187.11 -9.62402 362.992 -88.21 495.575 -221.324
c133.114 -132.583 211.7 -308.465 221.324 -495.575z" />
    <glyph glyph-name="parenleft" unicode="(" horiz-adv-x="938" 
d="M408.428 558.6c190.136 -80.5986 323.672 -269.043 323.672 -488.399c0 -71.6602 -14.25 -140.021 -40.0703 -202.4l59.8711 -26.3994c29.7695 71.8311 46.1992 150.595 46.1992 233.199c0 246.185 -145.927 458.24 -356.013 554.4zM716.7 690.6l-719.4 -690.8h939.4v99
l-679.8 2.2002l530.199 517z" />
    <glyph glyph-name="bar" unicode="|" 
d="M161.532 846.357c121.87 59.8535 261.77 1.44238 313.69 -131.245c28.124 -70.6699 12.9805 -115.38 -162.254 -476.664c-23.7969 -50.4795 -81.4873 -37.499 -113.217 25.96c-194.704 386.524 -201.915 501.184 -38.2197 581.949zM342.535 721.603
c-111.774 100.958 -264.653 -35.335 -162.975 -144.946c24.5186 -26.6816 49.7578 -38.2197 84.3721 -38.2197c97.3516 0 148.552 119.707 78.6025 183.166zM682.907 549.975c61.2959 19.4707 63.459 19.4707 125.476 0.720703
c168.744 -50.4785 198.311 -188.214 89.4199 -417.532c-39.6621 -82.208 -75.7178 -163.695 -81.4873 -181.003c-36.0566 -116.101 -89.4199 -77.1602 -194.704 141.341c-127.64 266.817 -110.332 400.947 61.2959 456.474zM827.133 413.682
c-22.3555 22.3545 -54.085 38.2197 -77.1611 38.2197c-98.0732 0 -147.109 -123.312 -77.1602 -192.541c49.0361 -49.7578 105.284 -49.7578 154.321 0c49.7578 49.0371 49.7578 105.285 0 154.321z" />
    <glyph glyph-name="braceright" unicode="}" 
d="M837.66 576.038c28.3682 28.3672 87.1787 27.6758 119.006 -1.38379c51.2002 -46.3574 15.9131 -143.222 -51.2002 -143.222c-37.3623 0 -186.119 -161.211 -186.119 -201.341c0 -13.8379 -8.99414 -35.2861 -20.7568 -47.7402
c-40.8213 -44.9736 -159.135 5.53516 -159.135 67.8057c0 31.1348 -112.087 125.924 -147.373 125.232c-26.9834 -1.38379 -168.821 -156.368 -186.119 -204.108c-5.53516 -14.5303 -28.3672 -40.1299 -51.2002 -56.043l-40.8213 -29.0596l-36.6699 33.2109
c-66.4219 62.2695 -29.752 172.28 52.583 156.367c38.0547 -6.91895 188.195 144.605 188.195 190.271c0 48.4316 27.6758 76.1074 76.1074 76.1074c48.4326 0 89.9463 -38.0537 89.9463 -83.7188c0 -36.6699 85.7949 -105.859 141.838 -114.162
c56.7354 -8.30273 190.271 121.081 190.271 184.043c0 13.8379 9.68652 35.2871 21.4482 47.7412z" />
    <glyph glyph-name="asciitilde" unicode="~" 
d="M354.627 722.65c26.9482 23.7139 28.0254 23.7139 35.5713 4.31152c9.70117 -29.1025 29.1025 -37.7266 36.6484 -18.3242c7.54492 20.4805 24.791 21.5576 50.6611 2.15625c16.168 -12.9346 17.2461 -18.3242 4.31152 -42.0381l-15.0908 -28.0254l-32.3369 20.4805
c-30.1807 18.3242 -34.4922 18.3242 -51.7393 2.15527c-14.0127 -14.0127 -19.4014 -15.0908 -23.7139 -4.31152c-3.2334 7.54492 -11.8564 19.4023 -19.4014 26.9473c-10.7793 9.70117 -7.5459 17.2461 15.0898 36.6484zM552.96 663.366
c6.46777 3.2334 22.6357 0 35.5703 -9.70117c21.5586 -12.9346 22.6357 -19.4023 12.9346 -42.0381c-14.0127 -29.1025 -26.9473 -32.3369 -54.9727 -10.7783c-19.4014 15.0898 -15.0898 47.4268 6.46777 62.5176zM244.682 639.652
c24.792 25.8701 26.9482 25.8701 50.6611 -1.07715c18.3242 -21.5586 18.3242 -23.7139 -3.2334 -43.1162c-28.0254 -25.8691 -35.5703 -25.8691 -52.8164 2.15527c-12.9355 19.4023 -11.8574 25.8701 5.38867 42.0381zM654.282 577.135
c17.2461 34.4922 22.6357 35.5703 49.583 15.0908c14.0127 -10.7793 17.2461 -22.6357 11.8564 -43.1162c-7.54492 -32.3369 -10.7783 -33.415 -48.5049 -15.0908c-25.8691 11.8574 -26.9473 14.0127 -12.9346 43.1162zM141.204 565.278
c22.6357 19.4014 23.7139 19.4014 45.2715 -7.5459l21.5576 -28.0254l-25.8691 -20.4795c-33.415 -25.8701 -34.4922 -25.8701 -49.583 8.62305c-11.8564 24.792 -10.7793 30.1807 8.62305 47.4277zM771.772 515.694c20.4805 31.2598 23.7139 31.2598 50.6611 11.8574
c14.0127 -10.7793 17.2461 -22.6357 11.8564 -43.1162c-6.4668 -25.8691 -36.6475 -40.96 -36.6475 -17.2461c0 6.46777 -9.70117 10.7793 -21.5586 10.7793c-25.8691 0 -26.9473 4.31152 -4.31152 37.7256zM57.1289 499.526
c12.9346 10.7793 29.1025 16.168 36.6475 14.0127c17.2471 -6.46777 18.3242 -24.792 2.15625 -24.792c-7.54492 0 -9.70117 -10.7783 -5.38965 -26.9473c8.62305 -33.4141 -1.07812 -34.4922 -32.3369 -4.31152l-24.791 23.7139zM888.186 455.333
c23.7139 25.8691 35.5703 28.0244 52.8164 9.7002c10.7793 -10.7783 8.62305 -19.4014 -9.70117 -37.7256c-19.4014 -21.5586 -24.791 -22.6357 -43.1152 -9.70117c-19.4023 15.0908 -19.4023 16.168 0 37.7266zM113.179 418.685
c18.3242 15.0898 33.415 26.9473 33.415 26.9473c1.07812 0 9.70117 -11.8574 19.4023 -26.9473c16.168 -24.792 16.168 -26.9473 -8.62305 -51.7393l-25.8701 -25.8691l-14.0127 24.791c-7.54492 14.0127 -18.3242 25.8701 -24.791 25.8701
c-6.46777 1.07715 3.2334 12.9346 20.4795 26.9473zM612.244 438.086c-8.62305 3.23438 -5.38965 6.46777 6.46777 6.46777c11.8564 1.07812 18.3242 -2.15625 14.0127 -5.38965c-3.23438 -3.2334 -12.9355 -4.31152 -20.4805 -1.07812zM250.071 380.958
c0 15.0908 2.15625 20.4795 5.38965 14.0127c2.15625 -7.5459 2.15625 -20.4805 0 -26.9473c-3.2334 -7.5459 -5.38965 -2.15625 -5.38965 12.9346zM873.095 343.231c0 37.7266 0 38.8047 43.1162 35.5703c29.1025 -1.07715 39.8818 -5.38867 32.3369 -12.9346
c-5.38965 -5.38965 -10.7793 -21.5576 -10.7793 -35.5703c0 -20.4805 -5.38965 -24.792 -32.3369 -24.792c-30.1807 0 -32.3369 3.23438 -32.3369 37.7266zM204.8 316.284c0 19.4023 26.9473 11.8564 40.96 -11.8564c12.9346 -19.4023 11.8574 -25.8701 -8.62305 -44.1943
l-22.6357 -21.5576l-21.5576 21.5576c-24.792 26.9473 -26.9473 45.2715 -4.31152 45.2715c8.62305 0 16.168 5.38965 16.168 10.7793zM908.665 244.065c18.3242 2.15527 34.4932 5.38965 34.4932 5.38965c1.07715 1.07715 -1.07812 -15.0908 -3.23438 -35.5713
c-4.31152 -33.4141 -8.62305 -37.7256 -35.5703 -37.7256s-31.2588 4.31152 -31.2588 31.2588c0 28.0254 4.31152 32.3369 35.5703 36.6484zM272.707 205.261c28.0254 28.0254 39.8828 30.1816 39.8828 9.70117c0 -7.54492 7.54492 -20.4795 16.168 -28.0254
c15.0908 -12.9346 14.0127 -16.168 -11.8564 -33.4141c-28.0254 -18.3242 -30.1816 -18.3242 -48.5059 4.31152s-18.3242 24.791 4.31152 47.4268zM355.705 100.705c0 19.4023 26.9473 11.8574 40.96 -11.8564c12.9346 -19.4023 11.8574 -25.8701 -8.62305 -44.1943
c-22.6357 -20.4795 -22.6357 -20.4795 -43.1152 4.3125c-24.792 30.1807 -26.9482 40.96 -5.38965 40.96c8.62305 0 16.168 5.38867 16.168 10.7783zM866.627 95.3154c-5.38867 12.9355 2.15625 16.1689 33.415 16.1689c32.3369 0 38.8047 -3.2334 33.415 -17.2461
c-3.2334 -9.70117 -6.46777 -24.792 -6.46777 -33.415c0 -12.9346 -7.54492 -15.0908 -32.3369 -9.70117c-18.3242 3.2334 -32.3369 1.07812 -32.3369 -4.31152c0 -6.46777 6.46777 -9.70117 14.0127 -7.54492c6.46777 1.07715 12.9346 -4.31152 12.9346 -10.7793
c0 -7.54492 -3.2334 -14.0127 -7.54492 -14.0127c-60.3623 0 -59.2842 -1.07812 -53.8945 32.3369c3.2334 22.6357 10.7793 32.3369 24.791 32.3369c12.9355 0 17.2471 5.38965 14.0127 16.168zM431.158 57.5898c0 29.1025 3.2334 32.3369 32.3369 32.3369
c29.1025 0 32.3369 -3.23438 32.3369 -32.3369c0 -29.1035 -3.23438 -32.3369 -32.3369 -32.3369c-29.1035 0 -32.3369 3.2334 -32.3369 32.3369zM568.051 83.459c4.31152 3.2334 14.0127 4.31152 22.6357 1.07812c7.54492 -3.23438 19.4023 -5.38965 24.791 -5.38965
c5.38965 0 9.70117 -14.0127 9.70117 -32.3369c0 -28.0254 -3.2334 -31.2588 -23.7139 -28.0254c-14.0127 3.2334 -28.0244 5.38965 -32.3359 5.38965c-10.7793 1.07812 -10.7793 48.5049 -1.07812 59.2842zM692.009 46.8105
c1.07715 29.1035 4.31152 32.3369 35.5703 32.3369c31.2588 0 34.4922 -3.2334 33.415 -32.3369c-1.07812 -29.1035 -4.3125 -32.3369 -35.5713 -32.3369c-31.2588 0 -34.4922 3.2334 -33.4141 32.3369z" />
  </font>
</defs>
</svg>
